<svg width="30" height="30" viewBox="0 0 30 30" fill="none" xmlns="http://www.w3.org/2000/svg">
<path fill-rule="evenodd" clip-rule="evenodd" d="M7 0H23C26.866 0 30 3.134 30 7V23C30 26.866 26.866 30 23 30H7C3.134 30 0 26.866 0 23V7C0 3.134 3.134 0 7 0Z" fill="#FFA22A"/>
<path d="M21.5898 17.6484C21.8633 17.7578 22 17.9583 22 18.25C22 18.3047 21.9909 18.3503 21.9727 18.3867L21.3164 21.2305C21.2435 21.5768 21.0339 21.75 20.6875 21.75C17.1875 21.75 14.1979 20.5104 11.7188 18.0312C9.23958 15.5521 8 12.5625 8 9.0625C8 8.71615 8.17318 8.50651 8.51953 8.43359L11.3633 7.77734C11.3997 7.75911 11.4453 7.75 11.5 7.75C11.7917 7.75 11.9922 7.88672 12.1016 8.16016L13.4141 11.2227C13.4505 11.2956 13.4688 11.3776 13.4688 11.4688C13.4688 11.6693 13.3867 11.8424 13.2227 11.9883L11.582 13.3281C12.6029 15.5339 14.2161 17.1471 16.4219 18.168L17.7617 16.5273C17.9076 16.3633 18.0807 16.2812 18.2812 16.2812C18.3724 16.2812 18.4544 16.2995 18.5273 16.3359L21.5898 17.6484Z" fill="white"/>
</svg>
