<svg height="512pt" viewBox="-21 0 511 512" width="512pt" xmlns="http://www.w3.org/2000/svg"><path fill="#7b519c" d="M251.906 289.27c-5.855 5.859-15.351 5.859-21.21 0l-68.165-68.165a15.003 15.003 0 0 1-4.394-10.605c0-3.98 1.582-7.793 4.394-10.61l12.117-12.113-35.59-35.59-29.156 29.157c-9.812 9.812-9.808 25.777 0 35.59l124.965 124.972c4.723 4.723 11.043 7.32 17.797 7.32 6.754 0 13.074-2.601 17.797-7.324l29.156-29.152-35.59-35.594zm0 0"/><path fill="#7b519c" d="M468.984 180.71c0-48.089-18.843-93.417-53.07-127.64C381.691 18.848 336.364 0 288.277 0H181.203h-.004C133.117 0 87.79 18.848 53.57 53.066 19.348 87.29.5 132.621.5 180.707v84.164c0 37.238 11.36 73.063 32.852 103.598 18.96 26.937 44.46 47.976 74.191 61.32v48.344c0 24.996 13.996 33.863 25.98 33.867 8.563 0 17.13-4.227 25.465-12.559l53.856-53.863h75.437c48.086 0 93.414-18.848 127.637-53.07 34.223-34.223 53.07-79.551 53.07-127.637zM331.438 323.356l-39.766 39.762c-10.39 10.39-24.242 16.106-39.008 16.106-14.766 0-28.617-5.72-39.008-16.106L88.687 238.145c-21.503-21.512-21.503-56.508 0-78.016l39.766-39.762a14.98 14.98 0 0 1 10.606-4.394c3.976 0 7.793 1.578 10.605 4.394l56.805 56.805a14.999 14.999 0 0 1-.004 21.21l-12.113 12.114 46.953 46.953 12.117-12.117c5.86-5.855 15.355-5.855 21.21.004l56.805 56.805a14.986 14.986 0 0 1 4.395 10.605c0 3.98-1.578 7.797-4.395 10.61zM223.382 145.621c0-8.281 6.715-15 15-15 51.972 0 94.258 42.281 94.258 94.25 0 8.285-6.715 15-15 15-8.282 0-15-6.715-15-15 0-35.426-28.825-64.25-64.258-64.25-8.285 0-15-6.715-15-15zm158.52 94.258c-8.286 0-15-6.719-15-15 .003-34.332-13.368-66.606-37.641-90.883-24.278-24.273-56.551-37.644-90.883-37.644-8.281 0-15-6.715-15-15 0-8.282 6.719-15 15-15 42.344 0 82.152 16.492 112.094 46.433 29.945 29.942 46.433 69.75 46.43 112.094 0 8.281-6.716 15-15 15zm0 0"/></svg>