<svg width="16" height="16" viewBox="0 0 16 16" fill="none" xmlns="http://www.w3.org/2000/svg">
<path d="M6 8C4.52666 8 3.33333 6.80667 3.33333 5.33334C3.33333 3.86 4.52666 2.66667 6 2.66667C7.47333 2.66667 8.66666 3.86 8.66666 5.33334C8.66666 6.80667 7.47333 8 6 8ZM12 6.66667V4.66667H13.3333V6.66667H15.3333V8H13.3333V10H12V8H10V6.66667H12ZM6 8.78054C7.78 8.78054 11.3333 9.47513 11.3333 12V13.0428C11.3333 13.5951 10.8856 14.0428 10.3333 14.0428H1.66666C1.11438 14.0428 0.666663 13.5951 0.666663 13.0428V12C0.666663 9.71673 4.22 8.78054 6 8.78054Z" fill="#5CB458"/>
</svg>
