<svg width="16" height="16" viewBox="0 0 16 16" fill="none" xmlns="http://www.w3.org/2000/svg">
<path d="M1.78506 8.31768V2.12927C1.78506 1.57924 2.23253 1.13174 2.78259 1.13174C3.25194 1.13174 3.64634 1.45765 3.75209 1.89496C3.32325 2.16137 2.99744 2.5603 2.82212 3.04209C2.61509 3.6109 2.64194 4.22621 2.89778 4.77477L3.11828 5.24768L7.22572 3.33234L7.00522 2.85946C6.74944 2.3109 6.29528 1.89477 5.7265 1.68774C5.40641 1.57118 5.0715 1.52877 4.74213 1.55955C4.49488 0.710616 3.71034 0.0882416 2.78262 0.0882416C1.65719 0.0882416 0.741625 1.00384 0.741625 2.12924V8.31765H0V9.36112H0.75525C0.812437 10.4543 1.05444 11.3566 1.49116 12.1071C1.87909 12.7739 2.41516 13.2974 3.08444 13.6632C3.23578 13.7459 3.39447 13.8203 3.55972 13.887L2.58416 15.3261L3.44788 15.9116L4.61728 14.1866C5.02125 14.2595 5.4535 14.2968 5.91306 14.2968H10.087C10.5466 14.2968 10.9788 14.2595 11.3827 14.1866L12.5522 15.9116L13.4159 15.3261L12.4403 13.887C12.6056 13.8203 12.7643 13.746 12.9156 13.6632C13.5849 13.2974 14.1209 12.7739 14.5089 12.1071C14.9456 11.3566 15.1876 10.4543 15.2448 9.36112H16V8.31762H1.78506V8.31768Z" fill="#5CB458"/>
</svg>
