<svg width="16" height="16" viewBox="0 0 16 16" fill="none" xmlns="http://www.w3.org/2000/svg">
<path fill-rule="evenodd" clip-rule="evenodd" d="M3.56956 7.6H1.56956V14H9.56956V7.6H7.56956V11.6H3.56956V7.6Z" fill="#5CB458"/>
<path d="M12.5456 2H3.45439C3.27782 2 3.11435 2.09313 3.0243 2.24501L0.869909 5.87887C0.824149 5.95605 0.800003 6.04413 0.800003 6.13386V6.3C0.800003 6.57614 1.02386 6.8 1.3 6.8H14.7C14.9761 6.8 15.2 6.57614 15.2 6.3V6.13386C15.2 6.04413 15.1759 5.95605 15.1301 5.87887L12.9757 2.24501C12.8857 2.09313 12.7222 2 12.5456 2Z" fill="#5CB458"/>
<path d="M11.9696 7.6H13.5696V14H11.9696V7.6Z" fill="#5CB458"/>
</svg>
