<svg width="16" height="16" viewBox="0 0 16 16" fill="none" xmlns="http://www.w3.org/2000/svg">
<g clip-path="url(#clip0)">
<path fill-rule="evenodd" clip-rule="evenodd" d="M16 4.83878C16 3.98361 15.3068 3.29039 14.4516 3.29039H3.04684C2.7689 3.29039 2.52977 3.07681 2.51671 2.7992C2.50277 2.50278 2.73894 2.25813 3.03226 2.25813H14.209C14.8786 2.25813 14.9061 1.25097 14.2369 1.22687C14.1932 1.22529 2.28997 1.22587 2.32258 1.22587C1.03984 1.22587 0 2.26571 0 3.54845V13.2259C0 14.081 0.693226 14.7743 1.54839 14.7743H14.4516C15.3068 14.7743 16 14.081 16 13.2259V4.83878ZM13.6 9.60001C14.0418 9.60001 14.4 9.24184 14.4 8.80001C14.4 8.35818 14.0418 8.00001 13.6 8.00001C13.1582 8.00001 12.8 8.35818 12.8 8.80001C12.8 9.24184 13.1582 9.60001 13.6 9.60001Z" fill="#5CB458"/>
</g>
<defs>
<clipPath id="clip0">
<rect width="16" height="16" fill="white"/>
</clipPath>
</defs>
</svg>
