<svg width="16" height="16" viewBox="0 0 16 16" fill="none" xmlns="http://www.w3.org/2000/svg">
<path fill-rule="evenodd" clip-rule="evenodd" d="M10 0.609802C10 0.294312 9.71139 0.0576727 9.40202 0.119496L2.096 1.57949C2.04298 1.57949 2 1.62247 2 1.67549V14.0477H0V15.2H2.272L9.43308 15.9429C9.72781 15.9734 9.98431 15.7424 9.98467 15.4461L10 2.8V0.609802ZM13.6 14.0477V2.09717C13.6 1.82214 13.3779 1.59874 13.1028 1.59718L11 1.58525V2.8H12.32V15.2H16V14.0477H13.6ZM8.5 9.5C8.77614 9.5 9 9.27614 9 9C9 8.72386 8.77614 8.5 8.5 8.5C8.22386 8.5 8 8.72386 8 9C8 9.27614 8.22386 9.5 8.5 9.5Z" fill="#5CB458"/>
</svg>
