<svg width="16" height="16" viewBox="0 0 16 16" fill="none" xmlns="http://www.w3.org/2000/svg">
<path d="M7.37229 1.27189C7.62905 0.751617 8.37095 0.751618 8.62772 1.27189L10.1883 4.43392C10.2902 4.64052 10.4873 4.78372 10.7153 4.81685L14.2048 5.32391C14.779 5.40734 15.0082 6.11292 14.5928 6.51789L12.0678 8.97919C11.9028 9.14001 11.8275 9.37171 11.8664 9.59878L12.4625 13.0742C12.5606 13.646 11.9604 14.0821 11.4469 13.8121L8.32574 12.1713C8.12181 12.064 7.87819 12.064 7.67426 12.1713L4.55315 13.8121C4.03961 14.0821 3.43941 13.646 3.53748 13.0742L4.13356 9.59878C4.17251 9.37171 4.09723 9.14001 3.93225 8.97919L1.40721 6.51789C0.991749 6.11292 1.22101 5.40734 1.79516 5.32391L5.28467 4.81685C5.51267 4.78372 5.70977 4.64052 5.81173 4.43392L7.37229 1.27189Z" fill="#5CB458"/>
</svg>
